/* XPM */
static char *result[] = {
/* columns rows colors chars-per-pixel */
"128 128 24 1 ",
"  c #FCD187",
". c #F4C681",
"X c #EEC07C",
"o c #ECBC77",
"O c #FBD589",
"+ c #E9B874",
"@ c #F0C37F",
"# c #FAD48E",
"$ c #FCD891",
"% c #F7CA82",
"& c #FCCF81",
"* c #E4B473",
"= c #F2C47B",
"- c #FACC7C",
"; c #FCDC95",
": c #F8D184",
"> c #F8C87C",
", c #FCDF9D",
"< c #F8CD89",
"1 c #FBDA8F",
"2 c #DEAC6D",
"3 c #FACD83",
"4 c #F4CA87",
"5 c #F2C176",
/* pixels */
",;,;,;,;$$$$$$$$################$$$$$$$$$$$$$$$$;,,;,,;,,,,,,,,;11O1O1O#3333333%@XXXXXXX@=======3      3.@@@@@@Xo+++++++==>==>==",
",,;,;,;,$$1#1$1#$###############$$$$$$$$$$$$$$$$;,;,,;,,,;,;,;,,1O1O1O113333333%@XXXXXXX@=.=.=.=3  3 3 3@@@X@X@Xo+o+o+o+==.>=.>=",
",;,;,;,;$1$1$#1###$##$##$##$####$$$#$$$$$$$#$$#$,,,;,,;,,,,,,,;,#1O1O1O#3333333%@XXXXXXX===.=.=.3 3 3 3 .@X@@@@Xo++o++o+=.=.>=.=",
",;,;,;,,$#;#$1$$$###############$$$$$$#$$$$$$$$#;,;,,;,;,,;,;,,,1O1O1O113333333%@XXXXXXX@==.====3  3 < 3@@@X@X@Xo+o++o++==>=.=>=",
",,;,;,;;$1#;#;#####$##$##$##$###$$$$$$$$$$$$$$$$,,,;,,,;,,,,,;,;11O1O1OO3333333%@XXXXXXX==.==..=3 3 3  3.@X@@@@Xo++o++o+=.=>=>.=",
",;,;,;,,$#;#1#1$$###############$#$$#$$$$#$$#$$#;,,,$,;,,;,;,,,,11O11O1133333333@XXXXXXX@===.==@3  < 3 :.@@X@X@Xo+o++o++X>=>.=>=",
",,,,;,,;;111;#;#################$$#$$#$#$$$#$$#$,,;,,;,;,,,;,;,;1OO1O11#33333333XXXXXXXX=@.@=.@.: 3:: 33@X@@@@@Xo+++++++==.==>==",
";,;,,,,;$#$#$#$####$##$#$#$$$#$#;;;;;;;;,;,;,;,;;;#;#;#;###1#1#1#OOOOO O%.......@XXXXXXX%:%%:%%%3&&&333&=XXXXXXoXoXoXoXo>.>.>.%>",
",,,;,;,;$$$$$$$$########$$$#$$$$,,,,,,,,,,,,,,,,#########<O<:#<: 3 3 3 3.@@@@@@@@=======:     O &:&:&&&:Xooooooo========%333333%",
",;,,,,;,$$$#$$#$#1##1###$$$$$$$$,,,,,,,,,,,,,,,,;######## :O :O: < 3 3 <.@@@@@@@@====X==&      & &&&&&&&XoooXooo===X==X=%3%3%%3%",
",,,;,,,;$$$$$$$####1##1#$$#$$#$$,,,,,,,,,,,,,,,,$#$##$###: <    : 3 < 33.@@@@@@@=X=X===X:       &&&:&:&&XoXoooXo=X===X==%3%3%3%3",
";,;,,,;,$$#$$#$$#1######$$$$$$#$,,,,,,,,,,,,,,,,$##$####<      : 3  3  <.@@@@@@@@====X==&       &:&&&&&&XoooXooo===X====.33%3%3%",
",,,,;,,;$$$$$$$####1#1#1#$$#$$$$,,,,,,,,,,,,,,,,;####$###  :   O< 3  3 3.@@@@@@@@=X====@:       &&&&:&&:5oooooXo=====X==%3%3%:%%",
";,;,,,;,$$#$$#$$#1######$$$$$#$$,,,,,,,,,,,,,,,,$##$#####:   < : 3  3  <.@@@@@@@@====X==&        &:&&&&&XoXoXooo=X=X===X%3%3%33%",
",;,;,;,;$$$$#$$#$#1#1#1#$#$#$#$$,,,,,,,,,,,,,,,,;#$#$#$#O     :# < : :3 .@@@.@@@@=X====X:      &&&&&:&&&Xooooooo=====X==%%3%3%%3",
";,;,;;,;$##$#$#$;;,;,;,;;,;;;;;;,;;,;,;,,,,,,,,,#########:O::O:<3%%%%%%%@@@@@@@@.%>%.%.%3& & & &3-%-%-%%=5X5X5X5=.===.==%3:3:333",
";;;;;;;;$######1,,,,,,,,,,,,,,,,;;;;;$;1#########OOOOOOO:::#::O:.@@@@@@=XXXXXXXX<    :  %%%%%%%%.......==5=5=5==>%%%%-%-:&&&&&:&",
";;;;;;;;$#1#####,,,,,,,,,,,,,,,,;;;#;;;;########O      O:O:::O<:.@@@@@@@X@XX@XX@3       %%%%%%%%........==5=5=5=>%>%>%%%-&&&:&&&",
";;;;;;;;$###1#11,,,,,,,,,,,,,,,,,$;,#;;##########OOOO O  :#:#::O.@@@@@@@XXXXXXXX<       %%%%%%.%.......==5===5==>%>%%>%>::&&&&&&",
";;;;;;;;1#1#####,,,,,,,,,,,,,,,,,#,#;;;;#####<###    O OO::::#::.@@@@@@=XXXX@XX@3       %%%.%%%>.......@>==5==5=>%%>%>%%-&&:&&:&",
";;;;;;;;$###1##1,,,,,,,,,,,,,,,,,$;;;#,######### OOO O O::#::::<.@@@@@@@X@XXXXXX3       %%%%%%%.........55=5>5==>%>%%=:>:&&&&&&&",
";;;;;;;;1#1####1,,,,,,,,,,,,,,,,,#,#,;;;#########   O O O:::#:O:.@@@@@@.XXX@XXX@<       %%%%%%%%.......@>5==5=5=>%%.-%>%-:&&:&:&",
";;;;;;,;##1#11#1,,,,,,,,,,,,,,,,,$;;#;$;###<#### OO $  #O#O#:#::.@@@@@@@XXXXXXXX3       3%%%.%%.........5=5==5==>%-%-%%-:&&:&&&&",
";;;;;;;;$#######;,,,,,,,,,,,,,,,$$#$$$$##<###<# # #   O <%<%<<<<@X@@@@@=........333333<3.@=@==@==@@@@@@@>>>>>>>>%---%---&&&&&&&&",
"$$$$$$$$$$$$$$$#444444444#<#<<<<#########        # # # <%.......XXXoXoXo3      3%.%.%.%.oo+oo+ooXXXXXXXX%&333333--------&&&&&&&&",
"$$$$$$$$$$$$$$$$44444444<##<#######$####   :     < <#<#<%.......XoXXXXXX3       %.%%.%>.Xoooooo+XXXXXXXX%33&3&3&3-3-&-3-&&&&&&&&",
"$$$$$$$$$$#$#$$#44444444##<#<<#<#$###$##        # # < #<%.......XXXoXoXX%    3 3%%.>%.%=Xoo+ooooXXXXXXXX%3&33&3---------&& & &&&",
"$$$$$$$$$$$$$$#$444444444##<##<#########O < :  < #<# # <%...%...XXoXXXoX3      3%.%.%.%.Xoooo+o+XXXXXXXX%333&3333&-3-&-&&&&&&&&&",
"$$$$$$$$$$#$$$$#44444444##<#<#<###$##$##         < <#<#<%.......XXXoXoXX%      3%%.%>.%=Xoo+ooooXXXXXXXX%3&33&3-----&---&&& && &",
"$$$$$$$$$$$$$#$$444444444#<#<#<#########O  :     # #<# <%..4....XXoXXXXX3      :%.>%.%%.Xoooooo+XXXXXXXX%33&33&3-3-&>&-&&&&&&&&&",
"1$$$$$$$$$#$#$$#44444444##<###<####$####O O O<O #<#  #  ........XoXooooX%   3  3%%.%.>.>oo+o*X*XXXXXXXXX-3&>&3-3&>--->--&&&&&&&&",
"$$$$$$$$#<#<#<#<444444444###4#<##$$#$$$#<<<<<<<<%.%.4..4.......@..@@.@.@3 <3 <:3.=======XoooXoXoX@@@@@@@%3333>333 33 3::3--&&-&-",
"$$$$$$$#44444444@@@@@@@44#<##<###$$$$$O$4.......o+o+o+o+XXXXXXXX< O O O<:333333%=5X5X5X55X5XXoXX........>%>>3>3> #######.======X",
"$$$$$$$#44444@44@4@4@4@4<##<<#<##$$$$$$O4..4....X++o+o+oXXXXXXXX<    :  :3:3:::%=5X55X5X5X5X5555........%>3%%%>%##$#####.==X=@==",
"$$$$$$$#44@4444@4@@4@@@44#<##<#<#$$O$$$O4....4@.o+o+o+o+XXXXXXX@<      <:3:43%:%=5X5X55X5o55XoXo.......>%%%>3>3% ###$O$#.=@==X=X",
"$$$$$$$#44444@444@4@@4@4<#<#<#<##$$$$$$#4.@4.@4.X+o+o++oXXXXXXXX<   :   :333:::%=555X5o55X5X5555>...>...%>3%%%%%O#$#####.==X====",
"$$$#$$$#44@4444@@.@4@@@4<#<#<####$$$$$O#4....4@.o+o++o+oXXXXXXX@<     :<:3::%<3:=5Xo55X5X5o5X5Xo........3%>%>3>% ###$##O4===@=X=",
"$$$$$$$#44444@444@.@4@4@<##<#<<##$$$$$$O4..4....X+o+o+o+XXXXXXXX<  :    :3%3:%:%=5555X55X55X5X55........%>%3%%%%##$#O###.==X===@",
"$#$$#$$#444@444@@4@4@@@4<#<#<#<#$$O$O$$#4....4..oo+o+o+oXXXXXXX@<    <O:3::%:3:%=XXXX5o5o5o5o5oX..>...>.>3%>%>%>O#O##$O#%=@=@=@=",
"#######<44@4@4@444444444<<<4#4<<<<<<<<<<..@.@@@.@X@X@X@X........: < <  :%.%.%..%.====.==========5X.@..@=.>>%>%>%<#######@XXXXXXX",
"44444444@@@@@@@4########44444444XXoXXoXXX@@@@@@@4<<<<<<<3::<: :   : : ::==5=5=5=%33333333%%%%%%%o+++++++>>>>>>>><<<4#4<4X*******",
"444444444@4@@4@@########44444444XoXXoXoXX@@@@@@@<<<<<<<<<    : <: : : <:=5=====533333333%%%%%%%%X++o++o+=>=>=>=.<4#4#4#4X*******",
"44444444@@@@@@@4########444%4444XX*XX*XXX@X@X@X@4<<3<<3<3 ::< : :< :< :3===5=5=X333333333%.%%.%>o+o++o++=>=>.>=>4#4#4#4#********",
"4<44<4444@@4@4@@########<444%444XX@*XXXXX@@@@@@@%<<<<<%<  <  3 :  :   <:==5=X==533333333%%%%%%%%X++o++o+=>>>=>>.44#4#4#4X****X**",
"44444444@@@@@@@4#######<44444444XX*@X*XXX@@X@@X@<<<3<<<<3 : : < :< :: ::===5=5=X333333&33%%%%%%%o+o++o++=>=>>=>.<#4#4#4#********",
"444<44444@@@4@@@####<###<44%4444XX@*XXXXX@@@X@@@%<<<<<3<3 : <: :  : < :<=5X=5@5533333333%.%%.%%%o++o++o+=>>=>=>.44#4#4#4X**X****",
"44444444@@@@@@@4#<#####<44444444XXXXX*XXX@X@@X@X4<3<3<<% :3:::: :<::::::=@=5@5@=%33333333%%%%%%%X+o+o+o+=>=>>=>.<###4##4X*******",
"4444444444444444<##<#<#<4......4@XXXX@XX4@4@....<<< << <:  3 3 <:   <  3%.....>.3&3&3&33.===.===XooooXoo.>>.>>>.4@@@4@4@X*****X*",
"XXXXXXX@<#<#<#<<<<<<<<<<.@@@@@@@.@4@4@4@4<<<<<<< O                    3  3 3 33 33 3 3&&o++o+++o=.>>>>>.>>%>>%>>+***2*2**oooXooo",
"@@@@@@@@<##<#<##<<<<<<<<.@@@@@@@.@@4@@@.4<<<<<<< OOO OOO    :  :          3 3   & 3 & 33X+++o+o+=>>.>..>%>3>%>%>+**2****+ooo+oo+",
"@@@@@@X@##<#<#<<<#<<<<<<@@@@@@.@@4@@4@4@<<<<<<<< O  O     :    <   3   <& 3  3<3 3&3 3&&o+o++++o=>.>.>>.>>>3>3>>+*2**2*2+ooooo+o",
"@@X@X@@@<##<#<##<<<<<#<<.@@@@@@@@.@4@.@.4<<<<<<< O O OO        :         3 <3   33 &3 3&o+++o+o+@>.>.>.>>3%>%>>%****2***+o+o+ooo",
"@@@@@@X@##<#<#<<<<<<<<<<4@@@@@.@4@.@....<<<<<<3< O O O     <O: <    <     3  3 3 3 3 3 3o+o++o++.>.>=>.>>>>3>3>>+*2***2*+ooo5+o+",
"@@X@X@@@<##<#<##<<<#<<<<@@@@@@@@@.@4@4@.4<<3<<<< OO O O #:    #:       3 3 3 < 3 &3 3&3&X++o++o+=>.>.>.>%>%>>>%>+***2**2+o+o+ooo",
"@X@@@X@@<#<####<#<<<<#<<4@@@@@@@.@.@@@@.4<4<4<43OO O O       <    3  3  3 3 3 3 3&3&&3&3o+++o+++.>.>.>.>>>-%-%->+*2***2*++o+o+++",
"44444444########<<<<<4<44.....4.4444444%<<:<:<:<#  # # O########         3   3 3%%%%%%%.Xooooooo.>>.>.>..=======+*******55555555",
"$$$$$$$$$#$$#$##<44444444<<<<<4<#OOOOOO#         # #  # $$$$$$$$# < < < < 3 3  3X+++++++X@@@@@@X%333333>o*+*+*+*++++++++>-------",
"$$$$$$$$$$$$$$$#44444444<<4<4<<4#OOOOOOO         #< <#<#$1;$1;$$#  #<# <  3 < 33X++++++oX@@@=@@=%333333%o****+**++++++++>-&-&-&-",
"$$$$$$$$$$#$$#$#4%44444%<<<<<<4<OO#OO#O#        < #<# <#$$$1$$1$# <  <  <  3 3 3X++++++oX@=X@@5@%333333>o*+*+**+++++++++>--&--&-",
";$$$$$$$$$$$$$$#444%4%44<%<4<%<<#OOOOOOO     <   #< #< #$1$;$;$$# #<# #< 3 <  33X++o*o++X@X.5@@=%33%333%o**+**+*++++++++>-&--&--",
"$$$;$$$;$#$#$$$#4%4<.<.<4<<<<<<4OOOOOOOO        < #< #<#$$;#;#;$# < < <  < 3 3 3X+++o*ooX@@@@@@X%333333>o*+*+***++++++++>--&--&-",
";$$$$$$$$$$$$$$#444%44<.<<<%<%<<OOOOOOO#    3    #< # <#$$1$1;$$# # # #<  3 3 33X++o*o++X@5@@5@=%333333%o*+***+*++++++++>-&--&--",
"$$$$$$$$$#$#$#$#<4%4%4.4<%4<4<4< #OOOOOO        < # <# #$;;;$;$$# # <#   3 3 3 3X+++o*o+X@@X@@X=%333333%o**+*+**++++++++>--&--&-",
";;;;;;;$$$$$$$$#<4<%<%<%<<<%<<%<#OOOO#OO#O #O # ########$$$#$$$$<4%<<<%<%%......XoXXXXXoXXoXoXoX5XX5XX5X+***+**+oooooooo>-------",
",,,,,,,,;$;$;$;$  3 < < <:<:<:<:O#######$$$$$$$$$$$$$$$$########Xooo+ooo++++++++@.@@.@..+*******222222222+++*+++>--&----->----->",
";,;,;,;,;;;;;;;$ : : : :::::::::###O##O#1$;1;$;$;$$$$$$$$#######Xoooooo++**+*+*+@..4@4..+******222222222*++*+*+*>&&-&&&--->>->>-",
",,,,,,,;;$;$;$;$ < : 3 ::<:::<::#######O#;#;#;1$$$$$$$$$$##$####Xooooooo+++*+*++@.....@.+*******222222222+*+*+*+>&-&-&-&-%>-=-%-",
";,,;,;,,,;;;;;;$  : <: <:::<::::O#O#####11;$1$$$;$;$$$$$$#######XoX+ooo+++*+*+++@......4+******2222222222+*++*++>&-&&-&---=%-->-",
",,;,,,,;#;#,#,#; : :  :::<:::<:<####O#O##;#;1;$$$$$$$;$$$####$##Xo+X*X*X*+*++*++@......@+*******222222222+*+*+*+>&-&-&---%--=-=-",
";,,,,;,,;,#,#;;$  < <: <:::#::::O#######11;#;#;$;$$$$$$$##$#####XooooXoo+*++*+*+@.@4@4@4+******2222222222++*++*+>&&-&-&&->-=-%--",
",,;,,,,;;#,#,#,# ::::::::::::<::######O#$1$111$#;$$$$$$;$##$#$##Xooo*X*o++*+*+++=.......+*******222222222+*+*+++5&-&&-&-->--=--=",
";,;,;;;,$$#$#$$#<::<:<:<%4444:44####O###$1;1;1;;$;$;$;$$#<<<<<<<XooXXXXooo++o++oX@@@@@@@+**+***222222222*oooo++o>&-&-&--:=:-:=:-",
"$###1####<#<#<<<........@@@@@@@@O#####O#;;;;;;;;$1$$$$$$@XXX@XXX@@@XXX@X.=>>>>==+**+****+++++o++o=+++++o=>>>>>>>----&---::::-:::",
"$1;#;1;#<<<<<<#<........@@@@@@@@########;;;;;;;;;11;1;11@XXXXXXX@@@@@@@X.==.==>.+***+*+*++++++++5=======>>>>>>>>>3-&----:-:=:-:-",
"$#11##1#<< # <<<%.......@@@@@@@@###$#$O$;;;;;;;;11;1111#@XXXXXXXX@@@@@@===>>=>.5+*+*****++++++++X==5====>>%>%>%>----3-&>-::::=::",
"$;#;#;1#<<<< <#<........@@@@@@@@###O####;;;;;;;;;11111;1@XXXXXXX@@5@=X=@.=.=.=>.+***+*+*++++++++5=5>===5>%>>>>>>>3-&----:-:=::-:",
"$#;#1#1#<< <#<<<%...4@4.@@@@@@@@##$##$O$;;;;;;;;11;1;11#@XXXXXXo@@@@@@@5.=>>=>==+*+**+**++++++++X===5.5.>>>%>%>>3---&---::-::-:=",
";1#;#;1#<<#< < <........@@@@@@@@O#######;;;;;;;;;1111111@XXXXXXX@@5@@5@@.=.=>.>.+***+***++++++++5==5.5=5>.>>>>>>>&-3----:=::=:::",
"$#11#111< < < <<%.......@@@@@@@@###$####;;;;,;;;;1$$$$1#@XXXXXXXX@==X=@=.=>.5.5.+*+**+**++++++++X=5=55==.>>%>.>>---------::-::-:",
"########<<<<<<<4........@@@@@@@@ #OO#OO#$1;11111########@XXXXXXXXXXXXXXX5XX5X5XX+**+**+*oooooooo....%..%>%%%%3%%-3------::::::::",
"@@@@@@@@@@@@@@@@@XXXXXXX@.....@.        %4.4444..@@@@@@@@XXXXXXXoooooooo*********++*++*+.:4:4:4:11111111O       :333333:O:O:1:OO",
"@@@@@@@@@@@@@@@@XXXXXXX@@.@.@.@.3      <%.4.%.4.4@.....@XXXXXXXXoooooooo********+*+*+*+*.:4::4::1;1;1;1;O O O O :33333%::11:1:1O",
"@@@@@@@@@@@@@@@@@XXXXXXX@.@.@.@.<       %4.4.4....@.@.@.XXXXXXXXooooo+o+**********++*+*+4::4::4:1111;111O    O  &333333-OO:1:11:",
"@@@@@@@@@@@@@@@@XXXXXXX@@....@..3      34.%4.4%4.@.@.@.@XXXXXXXX+X*X*X+X****2***+*+*++*+@:4::4::1;1;1;1;O O O  O:33333%:O:11:1:1",
"@@@@@@@@@@@@@@@@@XXXXXXX@.@@..@.<       %4.4.%.....@4@.@XXXXXXXXooX+Xoo***********+*+*+*4::4::4:11111;11O  O  O &3%3333::1:1:11:",
"@@@@@@@@@@@@@@@@XXXXXXX@@...@.@.3      <%4.%4.44..@.@..@XXXXXXXXX*X*X*oX*********+*+*++*.:4::4::11;1;11;O O  O  :33:%3-::1:1:1:1",
"@@@@@@@@@@@@@@@@@XXXXXXX@@@.@.@.   3  33%.4.4.%..@....@.@XXXXXXXoooooX+o**********+*+**+.:4:4:4:1;1;11;;O  O  O &:-3-:3:O1111:1O",
"4.444.44.4.4.4@4@@@@@@@@....4...33333333.......@@XXXXXXXXXXXXXXXo+*++*o****2*2***o+++++o4:::::::1;;1;1;1O O&O  O:::::::::::::OO:",
"<<:<<<:<<<<<<< <<#<#<#<<<<<4<4<%%%%%%%%.Xooooooo**2**2*2oXXXoXXo********22222222@.....=.1;;;;;;;11111111O::O::::OOOOOOOO::::::::",
"                #<#<#<#<<4<%<34<%4%.%4%.Xoooooo+*2*222*2oXoXXXXX********2*2*2*2*X.=.=.=41;;;;;;;11111111O::::O::OOOOOOOO:3:%:%:%",
"   :    :  :  :   #< #< <3<<4<<%%%%%%.%.Xoooooo+*2*2*22*oXXXXoXo***2****22222222=.=.=%=41;;;;;;;11111111::O:::::OOOOOOOO:3:%:%::",
" :              #< #<# <<4<%<%<4%.<.%%%.Xoooooo+*222*2*2oXXoXXXX*2***2**2*2*2*2*X.=:=.=.1;;;;;;;111#11#1O:::O:O:OOOOOOOO:3%:-:%:",
"    :  :  :      #<  <#<<3<<%<<%%%.%<.%.Xoooooo+*2*2*22*oXXXXXXo********22222222=.==.=:@1;;;;;;;11111111:::O::::OOOOOOOO:3:%:%:-",
"<            :   < #<# <<<%<<%<4%.<.%.%.Xoooooo+*22*22*2oXXXXoXX****2*2**2*2*2*2=.%=4==41;;;;;;,11111#11O::::O::OOOOOOOO:3%:3:%:",
" <O<O<O<O<O <O <#<#<#<< <3<<%<%<%%.%%%..ooooooo+*2*2*22*oXXoXXXo********22222222=.===.=41;;;,;;;11#1111#::::::::OOOOOOOO:3:-%:%:",
"O: : :          < < < <<%...............XoXoXoXo**2*2*2*+ooooooo+***+**+***+*+*+@%4:4:%41;;;;;;;11#1##1#O::O:O::OOOOOOOO:%%:%-%-",
"        OO OOO  %%%%%%%.++++++++ooo+oooo...4....*******2**2*2*2*@4444444:OOOOOOOOOOOOO:1OOOOOOO#::::::::OOOOOOOO:&:&:&::->>>>>->",
"          O  O O%%%%%%%.+*******+++o+++o.%.4.44.**2**2**2*2*2*2*@4%4%4%:OOOOOOOOO1OOO1OOO#OO#OOOO:::O::::OOO:OO::&&:&:&:->>>->>>",
"    <   OO O O  %%%%%%%.+*+*+*+*o+o+oo+o.%4.%4..*******2*2*2*2*2444%444%OO1OO1OO1OOOOOO1OOOOOO#OO::O::O:OOOOOOO::&:&&:&:->>>>>>>",
"         O O O O%%%%%%%.+**+**+*+o+o++oo.%4.4.4.****2***2*2*2*2*@444%4%:OOO1OO1OOOOO1OOOOOO#OOOO:O:::::::OOOOOOO:&&:&:-:->->>->>",
"         O O O  %%%%%%%.+*+*+**++o++o+oo.%.4%.4.******2**2*2*2*244%44%4%OO1OOOOO1OOOOO1:1OOOOO#OO::O:O::OOO:#OO::&:&:&::->>>>>>>",
"         O O O O%%%%.%%.+*****+*+o+o+o+o.%.4.4%.*2**2***2*2*2*2*@444%4%:OOOO1O1OOO1OO1:1OOOO#OOO:O::::::O:1:1:OO:&&:&:&:->>>>->>",
"   3     OOOOOO %%%%%%%.+*+*+***oo+o+o+o.%4%%4%.***2**2*2*22*2*2.4%4444%O1O1OOOO1O1O1O1O#O#OO#OOO::O:O::OO:O:OO::&:&:&:-->>->>>-",
" 3       3 3333:.......=o+++++++ooXooXoX@.@@.@@@+***************4<4<:4<:O1O1O11O1OO#OO#OOOOOOOOOO:::::::O:1:OO:O&:-:--:->==5=555",
"<<%<%<<%oooooooooooooooX.%.%..%.%.......*222222*X.....44#1;;;;;;1;;;;;1;;1;1;111OOOOOO:O:-&&-&&-:::O:O:O::::::::>>>>>>>>++++++++",
"%<<<<<%4o+++++++oooooooo.%%%%%%%%%%%%%%=*2222222@.....@.$;;;;;;;;;;;;;;1;;;;;;;;OOO:OOOO&&&-&&-&#:O:::O::&&:&:::>>5>5>5>+*+*++*+",
"4<%<%<<%o+o+o+o+oooooooo%%%%%%%.%%%%%%%.*2222222=.....4.$;;;;;;;;;;;;;;;;1;;1;;1OOO#OOO:&&-&-&-&:<:O:#::O&:&O&&:>>>>>>>55+*+2++*",
"%<<%<<%4o++++o++oooooooo%.%%.%%%%%%%%%%=*2222222@.4@4@..$;;;;;;;;;;;;;;1;;;;;;;;#OO:#:OO&&-&-&-&O:O<::O::&&:&&:&>5>5>5-5++2+++*+",
"4<%<<%<%o+o+o++ooooooooo.%%%%%%.%%.%%%%.*2222222=......41;;;;;;;;;;;;;;1;;$;$;;1OOOOOOO:&&-&&-&&<::O:#::O&:&O&:&>>>>>>5-++++2++2",
"%<<<%<<4o+o++o++oooooooo%%%>%%%%>%%%.%%=*2222222@.......$;;;;;;;;;;;;;;;1;;;;$;;#OOOOOOO&-&&-&&-O<O:::O::&O&&:&:>5>5>5-5++2+++++",
"<%<%<<%%o+++++++oooo+ooo.%%4%%%%%%%%%%%.*2222222=...4..4$;;1;1;1;1;1;1;1;;;1;;;1OO:O:OO:&&-&-&-&:::#::<O:&:&O&O&>>>>>>>>5+++2++2",
"%4%4%%4.ooooooo++++++++o@....@.@.@==.===*222222*.4%4%444111;11;1111111111111111$O:::::::&-&-&&-&:OO:OOOO:&:&&&:&>>5>>5>552++++++",
"==.==.==@@@@@@@X222222222*2*2*2*22222222X@@@=@X@O1111O1OOOOOOOO:3&&&&&&&-%%%%%%>=5=5=5=5>%%%%%%%#11111113>------->>>>->>5+5+++5+",
"========@@@@@@@@222222222222222222222222X@@@@@@@#11O1111O:::::::3-:-&-:-->->->->55555555.%%%%%%%11111111&>>---->>>>>>>-55o+5+5++",
"========@@@@@@@X222222222222222222222222X@@@@@@@11111111::O:O:O::-&-:---%>%%>%%>>5555555>%%%%%.%O1111111&>->>>>->>>>>>>>5o++5+5+",
"=======@.@@@@@@@222222222222*22222222222X@@@@@@@O1111111O::#:<O:3-:-:-:--%>>%->>55555555.%%%.%%%111;1111&>>->->->>->>>-55o+5+5++",
"========@@@@@@@X222222222222222222222222X@@@@@@@111O1111::O::O:::--:--:-->3>3>%>>5555555-%%%:=:=11111111&>->->->>>>>>>>>5o+5++5+",
"====5===@@@@@@@@2222222222*2222222222222X@@@@@@@O1111O11O:::<:O:3-:--:-%->%>>%>>55555555.%%%.:.%11111111&>>->->->>>>>>-55o5++5++",
"========@@@@@@@X222222222222222222222222X@@@@@@@11111111O:O:O::O:-3-:-&--%>%>%>-55555555-%%.:=:=11;1;1;1:>->->>>->>>>>>-5+++++5+",
"XX5X5X5X@@@@@@@@222222222222*2*222222222@.@4@4@4O1111111O::::O::3--&--3->>>>>>>>55555555=...=.=.O1111111&>>>>>->>>>>>>-55o+555+5",
"22222222++++++++o++***++XXXXXoXoXo5o5o5XO#1#1#1#OOO:O:O::-:%:%-:-&&-&&--55555555+*******+ooooooX::::::::>5=5=555--->->--->-5-5--",
"22222222*+*o*+*+XXoXXXXXXXoXoXXXX=X=X=X=#1111111OOOOOOO:3-----%--&-&&-&-555o5o5o**22*22*+ooooooo.::4:::%>5>55>55>---5--5-5------",
"22222222+++*o*o*XoXoooooXoXXXoXo==X=X=5X#11111#1OOOOOOO:3-%-:---3-&-&-&-55+5555+*2+2+2+2+ooooooo%:4::4::=555555>>----------5-5--",
"22222222*+*o*o*+oXooXoXoXXXoXoX5X=X=X=X=#111#11#O#:#:OOO3--%--%--&&-&-&-55555+55*+2+2+2*+ooooooo.:::4:4:>55>5>55>-5-5-5--5------",
"22222222+++*o*+oXo5o5oXo5X5X5X5o=X=X=X=XO1111111O:OOOOO:3-:--:--3-&&-&--55+5555+*2+22+2++ooooooo::4::4::=5555555-----------5-5--",
"22222222*+*o*o*+ooXoXoXo5XoXoXoX=X5=X5=X#111#11#O#OOOOO:3--%--%--&-&-&&-555+5+55*+22+2+2+ooooooo@::4::4:>5>55>55>---5--5-5------",
"22222222+++*o**oXoooooooXo=o=o=o==X=5XX=#11111#1OO:O:OO:3-%-:---3-&-&---555555+5*2+2222++oo+oo+o::4::4:%=5555555--5---5----5--5-",
"22222222*o*X*oo+XXX=X=X5======X=X==X====#1111111OOOO#OOO:-:-:-:3&&&&&&&&55555555+*2++++2oooooooo%:::::::>>5>>5>>>---------------"
};
